<?xml version="1.0"?>
<svg width="2235" height="1199" xmlns="http://www.w3.org/2000/svg" version="1.1">
 <polygon points="4,1195 4,4 2231,4 2231,1195 4,1195" stroke="#fffffe00" fill="none"/>
 <polygon points="156,574 94,574 94,610 156,610 156,574" stroke="#90c4e4" fill="#1976d2"/>
 <text x="102" y="594" fill="#ffffff" font-family="Arial" font-size="12">Form1</text>
 <polygon points="344,574 192,574 192,610 344,610 344,574" stroke="#90c4e4" fill="none"/>
 <text x="200" y="594" fill="#000000" font-family="Arial" font-size="12">InitializeComponent</text>
 <polyline points="156,592 158,592 161,592 163,592 166,592 169,592 171,592 174,592 177,592 179,592 182,592" stroke="#4e8cb9" fill="none"/>
 <polygon points="182,588 192,592 182,595 182,588" stroke="#4e8cb9" fill="#4e8cb9"/>
 <polygon points="1689,220 1565,220 1565,256 1689,256 1689,220" stroke="#90c4e4" fill="none"/>
 <text x="1573" y="240" fill="#000000" font-family="Arial" font-size="12">SuspendLayout</text>
 <polyline points="272,573 276,548 282,516 289,479 298,438 309,395 321,353 334,315 348,281 363,254 380,236 452,201 551,179 671,167 806,163 949,167 1093,176 1232,188 1359,202 1469,215 1554,227" stroke="#4e8cb9" fill="none"/>
 <polygon points="1555,224 1564,229 1554,231 1555,224" stroke="#4e8cb9" fill="#4e8cb9"/>
 <polygon points="581,797 451,797 451,833 581,833 581,797" stroke="#90c4e4" fill="none"/>
 <text x="459" y="817" fill="#000000" font-family="Arial" font-size="12">ApplyResources</text>
 <polyline points="274,610 278,623 284,639 291,656 299,675 309,694 320,714 332,733 347,751 363,768 380,783 385,787 391,790 397,793 402,796 409,799 415,801 421,803 428,805 434,807 441,808" stroke="#4e8cb9" fill="none"/>
 <polygon points="441,805 450,810 440,812 441,805" stroke="#4e8cb9" fill="#4e8cb9"/>
 <polygon points="913,1036 742,1036 742,1072 913,1072 913,1036" stroke="#90c4e4" fill="none"/>
 <text x="751" y="1056" fill="#000000" font-family="Arial" font-size="12">btn_ShowRoom_Click</text>
 <polyline points="276,610 281,621 287,634 294,649 303,664 313,680 324,696 336,711 349,726 364,739 380,750 410,764 439,771 467,771 494,768 520,763 545,759 571,757 597,760 624,769 651,788 661,798 668,808 672,819 673,829 674,840 675,851 675,863 677,875 681,888 687,901 697,916 707,931 718,946 730,960 742,974 754,987 765,999 777,1010 787,1020 797,1029" stroke="#4e8cb9" fill="none"/>
 <polygon points="800,1027 805,1036 795,1032 800,1027" stroke="#4e8cb9" fill="#4e8cb9"/>
 <polygon points="1654,548 1600,548 1600,584 1654,584 1654,548" stroke="#90c4e4" fill="none"/>
 <text x="1613" y="568" fill="#000000" font-family="Arial" font-size="12">Add</text>
 <polyline points="344,589 348,589 351,589 355,589 358,589 362,589 366,588 369,588 373,588 376,588 380,588 526,584 675,581 824,578 969,575 1108,573 1236,571 1352,569 1452,568 1532,567 1589,566" stroke="#4e8cb9" fill="none"/>
 <polygon points="1589,563 1599,566 1589,570 1589,563" stroke="#4e8cb9" fill="#4e8cb9"/>
 <polygon points="639,705 392,705 392,741 639,741 639,705" stroke="#90c4e4" fill="none"/>
 <text x="401" y="725" fill="#000000" font-family="Arial" font-size="12">btn_BerechneMitTageslicht_Click</text>
 <polyline points="283,610 289,618 296,626 305,635 314,645 323,654 334,664 345,673 356,681 368,689 380,696 381,697 382,697 383,698 384,698 386,699 387,699 388,699 389,700 390,700 391,701" stroke="#4e8cb9" fill="none"/>
 <polygon points="393,698 401,705 390,704 393,698" stroke="#4e8cb9" fill="#4e8cb9"/>
 <polygon points="618,245 413,245 413,281 618,281 618,245" stroke="#90c4e4" fill="none"/>
 <text x="422" y="265" fill="#000000" font-family="Arial" font-size="12">btn_WaehleLeuchten_Click</text>
 <polyline points="270,574 272,556 275,532 279,505 286,475 294,444 305,411 319,379 336,348 356,320 380,295 382,293 384,292 387,290 389,288 391,287 393,285 396,284 398,283 401,281 403,280" stroke="#4e8cb9" fill="none"/>
 <polygon points="402,276 413,275 405,283 402,276" stroke="#4e8cb9" fill="#4e8cb9"/>
 <polygon points="1696,302 1696,286 1655,274 1598,274 1557,286 1557,302 1598,314 1655,314 1696,302" stroke="#c0c0c0" fill="none"/>
 <text x="1590" y="296" fill="#000000" font-family="Arial" font-size="12">AddRange</text>
 <polyline points="272,574 275,559 280,541 286,521 293,498 303,475 314,451 327,428 342,406 360,386 380,369 429,350 513,335 625,322 757,313 902,306 1051,301 1198,297 1335,295 1454,294 1547,294" stroke="#4e8cb9" fill="none"/>
 <polygon points="1547,290 1557,294 1547,297 1547,290" stroke="#4e8cb9" fill="#4e8cb9"/>
 <polygon points="1687,332 1567,332 1567,368 1687,368 1687,332" stroke="#90c4e4" fill="none"/>
 <text x="1575" y="352" fill="#000000" font-family="Arial" font-size="12">ResumeLayout</text>
 <polyline points="275,574 280,562 285,548 292,532 301,515 311,498 322,480 334,463 348,447 363,433 380,420 454,386 555,361 676,344 811,333 954,328 1098,327 1236,330 1363,334 1472,340 1556,345" stroke="#4e8cb9" fill="none"/>
 <polygon points="1556,341 1566,346 1556,348 1556,341" stroke="#4e8cb9" fill="#4e8cb9"/>
 <polygon points="1686,494 1568,494 1568,530 1686,530 1686,494" stroke="#90c4e4" fill="none"/>
 <text x="1576" y="514" fill="#000000" font-family="Arial" font-size="12">PerformLayout</text>
 <polyline points="344,575 348,574 351,574 355,573 358,573 362,572 366,572 369,571 373,571 376,570 380,570 517,555 656,543 796,533 933,526 1066,520 1190,516 1304,514 1405,512 1490,512 1557,512" stroke="#4e8cb9" fill="none"/>
 <polygon points="1557,508 1567,512 1557,515 1557,508" stroke="#4e8cb9" fill="#4e8cb9"/>
 <polygon points="609,429 422,429 422,465 609,465 609,429" stroke="#90c4e4" fill="none"/>
 <text x="431" y="449" fill="#000000" font-family="Arial" font-size="12">btn_WähleFenster_Click</text>
 <polyline points="294,574 301,569 309,564 317,558 325,552 334,546 343,540 352,534 362,528 371,523 380,517 389,512 398,507 407,502 416,497 425,492 434,487 443,482 452,478 460,473 468,469" stroke="#4e8cb9" fill="none"/>
 <polygon points="467,466 477,465 470,473 467,466" stroke="#4e8cb9" fill="#4e8cb9"/>
 <polygon points="577,651 455,651 455,687 577,687 577,651" stroke="#90c4e4" fill="none"/>
 <text x="463" y="671" fill="#000000" font-family="Arial" font-size="12">btn_Calc_Click</text>
 <polyline points="304,610 311,613 317,617 325,620 332,623 340,627 348,630 356,633 364,636 372,639 380,642 386,644 392,646 399,647 405,649 412,651 418,652 425,654 431,655 438,657 444,658" stroke="#4e8cb9" fill="none"/>
 <polygon points="445,654 454,660 444,661 445,654" stroke="#4e8cb9" fill="#4e8cb9"/>
 <polygon points="557,851 475,851 475,887 557,887 557,851" stroke="#90c4e4" fill="none"/>
 <text x="483" y="871" fill="#000000" font-family="Arial" font-size="12">GetString</text>
 <polyline points="271,610 274,626 278,646 283,669 291,694 300,721 311,748 324,774 340,799 359,822 380,842 387,847 395,852 403,856 412,859 421,862 429,865 438,867 447,868 456,869 464,870" stroke="#4e8cb9" fill="none"/>
 <polygon points="464,866 474,870 464,873 464,866" stroke="#4e8cb9" fill="#4e8cb9"/>
 <polygon points="651,597 380,597 380,633 651,633 651,597" stroke="#90c4e4" fill="none"/>
 <text x="389" y="617" fill="#000000" font-family="Arial" font-size="12">comboBox1_SelectedIndexChanged</text>
 <polyline points="344,599 346,599 349,600 351,600 354,600 357,600 359,601 362,601 364,601 367,601 369,601" stroke="#4e8cb9" fill="none"/>
 <polygon points="370,598 380,602 369,605 370,598" stroke="#4e8cb9" fill="#4e8cb9"/>
 <polygon points="569,905 462,905 462,941 569,941 569,905" stroke="#90c4e4" fill="none"/>
 <text x="471" y="925" fill="#000000" font-family="Arial" font-size="12">Form1_Load</text>
 <polyline points="270,610 271,629 274,653 278,681 284,711 292,744 303,777 317,810 334,842 355,871 380,896 386,901 393,905 400,909 407,912 414,915 422,917 429,919 437,921 444,922 452,923" stroke="#4e8cb9" fill="none"/>
 <polygon points="452,920 462,924 452,927 452,920" stroke="#4e8cb9" fill="#4e8cb9"/>
 <polygon points="2231,58 2152,58 2152,94 2231,94 2231,58" stroke="#90c4e4" fill="none"/>
 <text x="2161" y="78" fill="#000000" font-family="Arial" font-size="12">FromFile</text>
 <polyline points="907,1072 997,1091 1112,1114 1246,1138 1391,1161 1540,1179 1687,1191 1825,1194 1947,1185 2046,1162 2116,1123 2137,1082 2153,1005 2166,902 2176,780 2183,647 2187,512 2190,382 2191,265 2191,170 2191,104" stroke="#4e8cb9" fill="none"/>
 <polygon points="2187,104 2191,94 2194,104 2187,104" stroke="#4e8cb9" fill="#4e8cb9"/>
 <polygon points="960,856 695,856 695,892 960,892 960,856" stroke="#90c4e4" fill="none"/>
 <text x="704" y="876" fill="#000000" font-family="Arial" font-size="12">Berechne_Lichtmenge_Mit_Fenster</text>
 <polyline points="630,741 632,742 635,743 637,745 639,746 641,747 643,749 645,750 647,752 649,753 651,755 659,764 664,773 667,782 668,792 669,801 669,811 670,820 673,829 679,838 687,847 687,847 688,848 688,848 689,848 689,849 689,849 690,849 690,849 691,850 691,850" stroke="#4e8cb9" fill="none"/>
 <polygon points="693,847 700,856 689,853 693,847" stroke="#4e8cb9" fill="#4e8cb9"/>
 <polygon points="1398,883 1033,883 1033,919 1398,919 1398,883" stroke="#90c4e4" fill="none"/>
 <text x="1041" y="903" fill="#000000" font-family="Arial" font-size="12">Berechne_Parameter_Nach_Statischen_Angaben</text>
 <polyline points="960,883 966,884 972,884 978,885 984,885 991,885 997,886 1003,886 1009,886 1016,887 1022,887" stroke="#4e8cb9" fill="none"/>
 <polygon points="1022,884 1032,888 1022,891 1022,884" stroke="#4e8cb9" fill="#4e8cb9"/>
 <polygon points="1310,829 1120,829 1120,865 1310,865 1310,829" stroke="#90c4e4" fill="none"/>
 <text x="1128" y="849" fill="#000000" font-family="Arial" font-size="12">Berechne_Raumgroesse</text>
 <polyline points="960,865 975,864 990,863 1005,861 1021,860 1036,859 1051,858 1067,857 1081,856 1096,855 1110,854" stroke="#4e8cb9" fill="none"/>
 <polygon points="1110,851 1120,853 1110,858 1110,851" stroke="#4e8cb9" fill="#4e8cb9"/>
 <polygon points="2013,864 1931,864 1931,900 2013,900 2013,864" stroke="#90c4e4" fill="none"/>
 <text x="1939" y="884" fill="#000000" font-family="Arial" font-size="12">ToDouble</text>
 <polyline points="874,892 885,896 897,900 909,904 922,908 935,912 949,916 963,920 977,923 990,926 1004,928 1110,940 1219,947 1328,948 1436,945 1539,938 1636,930 1725,920 1803,909 1869,900 1920,891" stroke="#4e8cb9" fill="none"/>
 <polygon points="1920,888 1930,889 1921,895 1920,888" stroke="#4e8cb9" fill="#4e8cb9"/>
 <polygon points="1379,1005 1051,1005 1051,1041 1379,1041 1379,1005" stroke="#90c4e4" fill="none"/>
 <text x="1059" y="1025" fill="#000000" font-family="Arial" font-size="12">Berechne_Helligkeitseinfluss_Durch_Fenster</text>
 <polyline points="855,892 866,899 878,907 892,915 906,923 921,932 937,941 954,949 970,957 987,965 1004,972 1014,976 1024,979 1034,983 1044,986 1055,989 1065,992 1075,995 1086,998 1096,1001 1106,1003" stroke="#4e8cb9" fill="none"/>
 <polygon points="1107,999 1116,1005 1105,1006 1107,999" stroke="#4e8cb9" fill="#4e8cb9"/>
 <polygon points="1426,764 1004,764 1004,800 1426,800 1426,764" stroke="#90c4e4" fill="none"/>
 <text x="1012" y="784" fill="#000000" font-family="Arial" font-size="12">Berechne_Lichtmenge_AnzahlLeuchten_LeistungLeuchten</text>
 <polyline points="944,856 946,855 949,854 951,853 954,852 956,852 958,851 961,850 963,849 966,848 968,847 973,845 977,842 980,839 983,836 986,834 989,831 992,828 995,825 999,822 1004,820 1009,818 1014,816 1019,814 1024,812 1029,810 1034,808 1040,807 1045,805 1050,804 1055,802" stroke="#4e8cb9" fill="none"/>
 <polygon points="1055,799 1065,800 1056,806 1055,799" stroke="#4e8cb9" fill="#4e8cb9"/>
 <polygon points="2004,978 1940,978 1940,1014 2004,1014 2004,978" stroke="#90c4e4" fill="none"/>
 <text x="1948" y="998" fill="#000000" font-family="Arial" font-size="12">Equals</text>
 <polyline points="1359,919 1415,926 1476,934 1540,942 1605,950 1670,958 1733,966 1792,973 1846,980 1892,986 1929,991" stroke="#4e8cb9" fill="none"/>
 <polygon points="1930,987 1939,992 1929,994 1930,987" stroke="#4e8cb9" fill="#4e8cb9"/>
 <polyline points="1310,854 1324,855 1339,856 1354,857 1369,858 1385,859 1400,859 1416,860 1431,861 1447,862 1462,863 1513,865 1565,868 1618,870 1670,872 1720,874 1768,875 1813,877 1854,878 1890,879 1920,880" stroke="#4e8cb9" fill="none"/>
 <polygon points="1920,877 1930,881 1920,884 1920,877" stroke="#4e8cb9" fill="#4e8cb9"/>
 <polyline points="1379,1017 1435,1015 1494,1013 1557,1011 1620,1009 1682,1006 1742,1004 1799,1002 1850,1000 1894,998 1929,997" stroke="#4e8cb9" fill="none"/>
 <polygon points="1929,994 1939,997 1930,1001 1929,994" stroke="#4e8cb9" fill="#4e8cb9"/>
 <polygon points="1766,1078 1488,1078 1488,1114 1766,1114 1766,1078" stroke="#90c4e4" fill="none"/>
 <text x="1496" y="1098" fill="#000000" font-family="Arial" font-size="12">Berechne_Tiefe_Einfluss_Sonnenlicht</text>
 <polyline points="1310,1041 1324,1044 1339,1047 1354,1049 1369,1052 1385,1055 1400,1058 1416,1061 1431,1063 1447,1066 1462,1069 1466,1070 1470,1070 1475,1071 1479,1072 1483,1073 1487,1073 1491,1074 1496,1075 1500,1075 1504,1076" stroke="#4e8cb9" fill="none"/>
 <polygon points="1505,1073 1514,1078 1504,1080 1505,1073" stroke="#4e8cb9" fill="#4e8cb9"/>
 <polygon points="1754,1024 1500,1024 1500,1060 1754,1060 1754,1024" stroke="#90c4e4" fill="none"/>
 <text x="1508" y="1044" fill="#000000" font-family="Arial" font-size="12">Addiere_Alle_Errechneten_Seiten</text>
 <polyline points="1379,1030 1390,1031 1401,1031 1412,1032 1423,1032 1434,1033 1446,1034 1457,1034 1468,1035 1478,1035 1489,1036" stroke="#4e8cb9" fill="none"/>
 <polygon points="1489,1032 1499,1036 1489,1039 1489,1032" stroke="#4e8cb9" fill="#4e8cb9"/>
 <polygon points="2004,1078 1939,1078 1939,1114 2004,1114 2004,1078" stroke="#90c4e4" fill="none"/>
 <text x="1948" y="1098" fill="#000000" font-family="Arial" font-size="12">ToInt32</text>
 <polyline points="1766,1096 1784,1096 1801,1096 1819,1096 1837,1096 1854,1096 1871,1096 1887,1096 1902,1096 1916,1096 1929,1096" stroke="#4e8cb9" fill="none"/>
 <polygon points="1929,1092 1939,1096 1929,1099 1929,1092" stroke="#4e8cb9" fill="#4e8cb9"/>
 <polyline points="1754,1025 1773,1023 1792,1020 1811,1017 1830,1015 1849,1012 1867,1010 1884,1007 1900,1005 1915,1003 1929,1001" stroke="#4e8cb9" fill="none"/>
 <polygon points="1929,998 1939,1000 1930,1005 1929,998" stroke="#4e8cb9" fill="#4e8cb9"/>
 <polygon points="1673,656 1580,656 1580,692 1673,692 1673,656" stroke="#90c4e4" fill="none"/>
 <text x="1589" y="676" fill="#000000" font-family="Arial" font-size="12">Calculation</text>
 <polyline points="1263,764 1279,758 1296,752 1315,746 1334,739 1355,732 1376,725 1398,719 1419,712 1441,706 1462,701 1473,698 1484,696 1495,693 1506,691 1517,689 1528,687 1539,685 1550,684 1560,682 1570,681" stroke="#4e8cb9" fill="none"/>
 <polygon points="1569,677 1580,680 1570,684 1569,677" stroke="#4e8cb9" fill="#4e8cb9"/>
 <polygon points="1716,764 1537,764 1537,800 1716,800 1716,764" stroke="#90c4e4" fill="none"/>
 <text x="1546" y="784" fill="#000000" font-family="Arial" font-size="12">LeuchtdichteBerechnen</text>
 <polyline points="1426,782 1436,782 1447,782 1457,782 1468,782 1478,782 1488,782 1498,782 1508,782 1518,782 1527,782" stroke="#4e8cb9" fill="none"/>
 <polygon points="1527,778 1537,782 1527,785 1527,778" stroke="#4e8cb9" fill="#4e8cb9"/>
 <polygon points="1754,710 1499,710 1499,746 1754,746 1754,710" stroke="#90c4e4" fill="none"/>
 <text x="1508" y="730" fill="#000000" font-family="Arial" font-size="12">Berechne_Leuchtdichte_Im_Raum</text>
 <polyline points="1353,764 1366,762 1379,760 1393,759 1407,757 1421,755 1435,753 1448,751 1462,750 1476,748 1489,746" stroke="#4e8cb9" fill="none"/>
 <polygon points="1489,742 1499,745 1489,749 1489,742" stroke="#4e8cb9" fill="#4e8cb9"/>
 <polygon points="1663,602 1590,602 1590,638 1663,638 1663,602" stroke="#90c4e4" fill="none"/>
 <text x="1599" y="622" fill="#000000" font-family="Arial" font-size="12">ToString</text>
 <polyline points="1257,764 1271,758 1286,751 1302,743 1319,734 1337,726 1355,716 1373,706 1391,696 1409,686 1426,675 1431,672 1434,669 1438,666 1441,663 1443,660 1446,657 1449,654 1453,652 1457,649 1462,647 1474,642 1486,638 1498,634 1510,631 1523,629 1535,627 1547,625 1558,623 1569,622 1580,621" stroke="#4e8cb9" fill="none"/>
 <polygon points="1580,618 1590,621 1580,625 1580,618" stroke="#4e8cb9" fill="#4e8cb9"/>
 <polygon points="1749,818 1505,818 1505,854 1749,854 1749,818" stroke="#90c4e4" fill="none"/>
 <text x="1513" y="838" fill="#000000" font-family="Arial" font-size="12">LeistungAllerLeuchtenBerechnen</text>
 <polyline points="1353,800 1367,802 1381,804 1395,806 1409,808 1424,810 1438,811 1452,813 1466,815 1480,817 1494,819" stroke="#4e8cb9" fill="none"/>
 <polygon points="1495,815 1504,820 1494,822 1495,815" stroke="#4e8cb9" fill="#4e8cb9"/>
 <polygon points="2004,737 1939,737 1939,773 2004,773 2004,737" stroke="#90c4e4" fill="none"/>
 <text x="1948" y="757" fill="#000000" font-family="Arial" font-size="12">ToInt32</text>
 <polyline points="1716,775 1737,773 1760,772 1782,770 1806,768 1829,766 1851,764 1873,762 1893,761 1912,759 1929,758" stroke="#4e8cb9" fill="none"/>
 <polygon points="1929,755 1939,757 1929,762 1929,755" stroke="#4e8cb9" fill="#4e8cb9"/>
 <polyline points="1754,738 1773,739 1792,741 1811,742 1830,744 1849,745 1867,747 1884,748 1900,749 1915,751 1929,752" stroke="#4e8cb9" fill="none"/>
 <polygon points="1929,748 1939,752 1929,755 1929,748" stroke="#4e8cb9" fill="#4e8cb9"/>
 <polygon points="881,245 774,245 774,281 881,281 881,245" stroke="#90c4e4" fill="none"/>
 <text x="783" y="265" fill="#000000" font-family="Arial" font-size="12">LampenWahl</text>
 <polyline points="618,263 633,263 648,263 663,263 678,263 693,263 708,263 723,263 737,263 751,263 764,263" stroke="#4e8cb9" fill="none"/>
 <polygon points="764,259 774,263 764,266 764,259" stroke="#4e8cb9" fill="#4e8cb9"/>
 <polygon points="878,375 777,375 777,411 878,411 878,375" stroke="#90c4e4" fill="none"/>
 <text x="786" y="395" fill="#000000" font-family="Arial" font-size="12">ShowDialog</text>
 <polyline points="560,281 578,289 598,297 620,306 642,316 666,326 689,335 712,345 734,354 755,363 774,371" stroke="#4e8cb9" fill="none"/>
 <polygon points="776,368 784,375 773,374 776,368" stroke="#4e8cb9" fill="#4e8cb9"/>
 <polygon points="1291,245 1139,245 1139,281 1291,281 1291,245" stroke="#90c4e4" fill="none"/>
 <text x="1147" y="265" fill="#000000" font-family="Arial" font-size="12">InitializeComponent</text>
 <polyline points="881,263 901,263 924,263 948,263 974,263 1000,263 1027,263 1054,263 1080,263 1105,263 1128,263" stroke="#4e8cb9" fill="none"/>
 <polygon points="1129,259 1139,263 1129,266 1129,259" stroke="#4e8cb9" fill="#4e8cb9"/>
 <polygon points="1733,4 1520,4 1520,40 1733,40 1733,4" stroke="#90c4e4" fill="none"/>
 <text x="1529" y="24" fill="#000000" font-family="Arial" font-size="12">Zeige_Parameter_Auf_Gui2</text>
 <polyline points="873,245 908,231 952,214 1003,195 1060,174 1121,153 1187,130 1255,108 1324,87 1393,67 1462,49 1467,48 1471,47 1476,46 1481,45 1486,44 1491,43 1495,42 1500,41 1505,40 1510,39" stroke="#4e8cb9" fill="none"/>
 <polygon points="1509,35 1520,37 1511,42 1509,35" stroke="#4e8cb9" fill="#4e8cb9"/>
 <polyline points="1291,258 1315,257 1340,255 1367,254 1395,252 1423,250 1451,249 1479,247 1505,245 1531,244 1554,242" stroke="#4e8cb9" fill="none"/>
 <polygon points="1554,239 1564,242 1554,246 1554,239" stroke="#4e8cb9" fill="#4e8cb9"/>
 <polyline points="1289,281 1303,286 1318,291 1332,298 1347,305 1362,313 1376,321 1390,331 1403,342 1415,353 1426,366 1437,384 1443,403 1444,421 1443,438 1441,456 1439,473 1438,490 1441,506 1448,523 1462,539 1473,548 1485,555 1497,560 1511,565 1524,568 1538,570 1552,571 1565,572 1577,571 1589,571" stroke="#4e8cb9" fill="none"/>
 <polygon points="1589,567 1599,570 1590,574 1589,567" stroke="#4e8cb9" fill="#4e8cb9"/>
 <polyline points="1291,269 1314,271 1339,272 1365,274 1391,276 1419,278 1446,280 1473,282 1499,284 1524,286 1547,288" stroke="#4e8cb9" fill="none"/>
 <polygon points="1547,284 1557,289 1546,291 1547,284" stroke="#4e8cb9" fill="#4e8cb9"/>
 <polygon points="1791,58 1462,58 1462,94 1791,94 1791,58" stroke="#90c4e4" fill="none"/>
 <text x="1471" y="78" fill="#000000" font-family="Arial" font-size="12">cb_Waehle_Leuchte_SelectedIndexChanged</text>
 <polyline points="1291,270 1305,270 1318,269 1333,268 1347,266 1362,263 1376,259 1389,254 1402,247 1415,240 1426,231 1437,219 1442,206 1445,194 1445,180 1444,167 1443,154 1443,140 1446,128 1451,115 1462,103 1462,103 1463,102 1463,102 1463,102 1464,102 1464,101 1464,101 1464,101 1465,100 1465,100" stroke="#4e8cb9" fill="none"/>
 <polygon points="1463,97 1474,94 1468,103 1463,97" stroke="#4e8cb9" fill="#4e8cb9"/>
 <polygon points="1710,112 1544,112 1544,148 1710,148 1710,112" stroke="#90c4e4" fill="none"/>
 <text x="1552" y="132" fill="#000000" font-family="Arial" font-size="12">btn_Abbrechen_Click</text>
 <polyline points="1291,268 1304,267 1318,266 1332,265 1346,263 1360,260 1374,256 1388,251 1401,246 1414,239 1426,231 1433,224 1438,217 1441,209 1443,202 1444,194 1445,186 1447,179 1450,171 1455,164 1462,157 1468,153 1475,149 1481,145 1488,142 1496,139 1503,137 1511,135 1518,133 1526,131 1534,130" stroke="#4e8cb9" fill="none"/>
 <polygon points="1533,126 1543,129 1534,133 1533,126" stroke="#4e8cb9" fill="#4e8cb9"/>
 <polygon points="1721,166 1533,166 1533,202 1721,202 1721,166" stroke="#90c4e4" fill="none"/>
 <text x="1541" y="186" fill="#000000" font-family="Arial" font-size="12">btn_Uebernehmen_Click</text>
 <polyline points="1291,258 1304,257 1317,255 1330,253 1344,251 1358,249 1372,246 1386,243 1399,239 1413,235 1426,231 1431,229 1435,227 1438,225 1441,223 1444,221 1447,219 1450,217 1453,215 1457,213 1462,211 1468,209 1474,207 1480,205 1486,203 1492,202 1498,200 1504,199 1510,198 1517,196 1523,195" stroke="#4e8cb9" fill="none"/>
 <polygon points="1522,192 1532,194 1523,199 1522,192" stroke="#4e8cb9" fill="#4e8cb9"/>
 <polyline points="1284,281 1299,285 1315,289 1333,294 1350,298 1369,302 1387,307 1406,311 1425,315 1444,319 1462,323 1471,325 1481,327 1490,328 1500,330 1510,332 1519,334 1529,335 1538,337 1547,338 1556,340" stroke="#4e8cb9" fill="none"/>
 <polygon points="1557,336 1566,341 1556,343 1557,336" stroke="#4e8cb9" fill="#4e8cb9"/>
 <polyline points="1285,281 1299,286 1314,291 1329,298 1344,305 1359,313 1374,322 1388,332 1402,342 1415,354 1426,366 1435,379 1440,391 1442,403 1442,415 1442,427 1442,439 1443,451 1446,462 1452,474 1462,485 1470,491 1479,497 1488,501 1497,505 1507,508 1517,511 1527,513 1537,515 1547,515 1557,516" stroke="#4e8cb9" fill="none"/>
 <polygon points="1557,513 1567,517 1557,520 1557,513" stroke="#4e8cb9" fill="#4e8cb9"/>
 <polygon points="2087,4 1856,4 1856,40 2087,40 2087,4" stroke="#90c4e4" fill="none"/>
 <text x="1865" y="24" fill="#000000" font-family="Arial" font-size="12">Setze_Parameter_Gluehlampe</text>
 <polyline points="1742,58 1752,56 1763,55 1773,53 1784,52 1794,50 1804,48 1815,47 1825,45 1836,44 1846,42" stroke="#4e8cb9" fill="none"/>
 <polygon points="1845,38 1856,40 1847,45 1845,38" stroke="#4e8cb9" fill="#4e8cb9"/>
 <polygon points="2116,58 1827,58 1827,94 2116,94 2116,58" stroke="#90c4e4" fill="none"/>
 <text x="1836" y="78" fill="#000000" font-family="Arial" font-size="12">Setze_Parameter_LED_Einbaustrahler</text>
 <polyline points="1791,76 1794,76 1796,76 1799,76 1801,76 1804,76 1807,76 1809,76 1812,76 1814,76 1817,76" stroke="#4e8cb9" fill="none"/>
 <polygon points="1817,72 1827,76 1817,79 1817,72" stroke="#4e8cb9" fill="#4e8cb9"/>
 <polyline points="2079,40 2083,41 2087,42 2090,43 2094,44 2098,45 2102,45 2105,46 2109,47 2112,48 2116,49 2119,50 2121,50 2124,51 2127,52 2129,53 2132,53 2135,54 2137,55 2140,56 2142,57" stroke="#4e8cb9" fill="none"/>
 <polygon points="2144,54 2152,61 2141,60 2144,54" stroke="#4e8cb9" fill="#4e8cb9"/>
 <polyline points="2116,76 2119,76 2121,76 2124,76 2127,76 2129,76 2132,76 2135,76 2137,76 2140,76 2142,76" stroke="#4e8cb9" fill="none"/>
 <polygon points="2142,72 2152,76 2142,79 2142,72" stroke="#4e8cb9" fill="#4e8cb9"/>
 <polygon points="2000,276 1943,276 1943,312 2000,312 2000,276" stroke="#90c4e4" fill="none"/>
 <text x="1952" y="296" fill="#000000" font-family="Arial" font-size="12">Close</text>
 <polyline points="1710,136 1718,137 1726,138 1734,140 1743,142 1751,144 1759,146 1767,148 1775,151 1783,154 1791,157 1810,166 1828,176 1846,187 1863,199 1879,211 1895,224 1910,236 1923,248 1935,259 1946,269" stroke="#4e8cb9" fill="none"/>
 <polygon points="1948,266 1953,276 1944,271 1948,266" stroke="#4e8cb9" fill="#4e8cb9"/>
 <polyline points="1721,195 1728,196 1735,198 1742,199 1749,200 1756,202 1763,203 1771,205 1777,207 1784,209 1791,211 1807,216 1822,222 1838,228 1853,234 1869,241 1883,248 1897,254 1910,261 1923,267 1934,273" stroke="#4e8cb9" fill="none"/>
 <polygon points="1936,270 1943,278 1932,277 1936,270" stroke="#4e8cb9" fill="#4e8cb9"/>
 <polyline points="1733,22 1744,22 1755,22 1766,22 1778,22 1789,22 1801,22 1812,22 1823,22 1835,22 1846,22" stroke="#4e8cb9" fill="none"/>
 <polygon points="1846,18 1856,22 1846,25 1846,18" stroke="#4e8cb9" fill="#4e8cb9"/>
 <polyline points="1733,39 1744,41 1755,42 1766,44 1778,45 1789,47 1801,49 1812,51 1823,52 1835,54 1846,56" stroke="#4e8cb9" fill="none"/>
 <polygon points="1847,53 1856,58 1845,60 1847,53" stroke="#4e8cb9" fill="#4e8cb9"/>
 <polyline points="609,431 625,428 641,425 657,422 674,420 690,417 707,414 723,411 738,408 753,405 767,403" stroke="#4e8cb9" fill="none"/>
 <polygon points="766,400 777,402 767,407 766,400" stroke="#4e8cb9" fill="#4e8cb9"/>
 <polygon points="862,429 793,429 793,465 862,465 862,429" stroke="#90c4e4" fill="none"/>
 <text x="802" y="449" fill="#000000" font-family="Arial" font-size="12">Fenster</text>
 <polyline points="609,447 627,447 645,447 664,447 682,447 701,447 719,447 737,447 753,447 769,447 783,447" stroke="#4e8cb9" fill="none"/>
 <polygon points="783,443 793,447 783,450 783,443" stroke="#4e8cb9" fill="#4e8cb9"/>
 <polyline points="862,455 896,463 939,474 990,487 1048,501 1111,516 1178,531 1248,547 1320,563 1392,579 1462,593 1474,595 1486,598 1499,600 1511,602 1524,604 1536,606 1548,608 1559,610 1570,611 1580,613" stroke="#4e8cb9" fill="none"/>
 <polygon points="1581,610 1590,615 1580,617 1581,610" stroke="#4e8cb9" fill="#4e8cb9"/>
 <polygon points="1291,429 1139,429 1139,465 1291,465 1291,429" stroke="#90c4e4" fill="none"/>
 <text x="1147" y="449" fill="#000000" font-family="Arial" font-size="12">InitializeComponent</text>
 <polyline points="862,447 882,447 904,447 930,447 957,447 986,447 1016,447 1045,447 1075,447 1103,447 1129,447" stroke="#4e8cb9" fill="none"/>
 <polygon points="1129,443 1139,447 1129,450 1129,443" stroke="#4e8cb9" fill="#4e8cb9"/>
 <polygon points="1252,375 1179,375 1179,411 1252,411 1252,375" stroke="#90c4e4" fill="none"/>
 <text x="1187" y="395" fill="#000000" font-family="Arial" font-size="12">ToString</text>
 <polyline points="862,441 873,439 886,438 899,436 913,433 928,431 943,429 958,427 974,424 989,422 1004,420 1021,418 1039,415 1056,413 1074,411 1091,408 1108,406 1125,404 1140,402 1155,400 1168,398" stroke="#4e8cb9" fill="none"/>
 <polygon points="1168,395 1178,397 1169,402 1168,395" stroke="#4e8cb9" fill="#4e8cb9"/>
 <polyline points="1291,457 1305,457 1319,457 1333,456 1348,454 1362,451 1376,447 1389,442 1402,436 1415,429 1426,420 1438,405 1445,390 1447,374 1446,359 1444,343 1442,326 1441,311 1443,295 1450,280 1462,265 1470,259 1478,253 1486,248 1496,244 1505,241 1515,238 1525,236 1534,235 1544,234 1554,233" stroke="#4e8cb9" fill="none"/>
 <polygon points="1554,229 1564,233 1554,236 1554,229" stroke="#4e8cb9" fill="#4e8cb9"/>
 <polyline points="1291,443 1304,444 1318,445 1332,447 1346,449 1360,452 1374,456 1388,460 1401,465 1414,472 1426,479 1433,484 1437,490 1440,496 1442,502 1444,509 1446,515 1448,521 1451,527 1455,533 1462,539 1474,546 1486,552 1499,557 1513,561 1526,564 1540,566 1553,567 1566,568 1578,568 1589,568" stroke="#4e8cb9" fill="none"/>
 <polygon points="1589,565 1599,568 1589,572 1589,565" stroke="#4e8cb9" fill="#4e8cb9"/>
 <polyline points="1291,455 1304,455 1318,455 1333,454 1347,452 1361,449 1375,446 1389,441 1402,435 1414,428 1426,420 1435,411 1440,402 1443,392 1444,382 1444,372 1445,361 1446,351 1448,341 1453,332 1462,323 1469,317 1477,312 1485,308 1493,304 1502,301 1511,298 1519,296 1528,294 1537,293 1546,292" stroke="#4e8cb9" fill="none"/>
 <polygon points="1546,288 1557,291 1547,295 1546,288" stroke="#4e8cb9" fill="#4e8cb9"/>
 <polyline points="1291,450 1304,450 1317,449 1331,447 1345,445 1359,443 1373,440 1387,436 1400,431 1413,426 1426,420 1432,416 1436,412 1439,408 1442,403 1444,399 1446,394 1449,389 1452,385 1456,381 1462,377 1471,372 1480,368 1489,365 1499,362 1508,359 1518,357 1528,355 1537,353 1547,352 1556,351" stroke="#4e8cb9" fill="none"/>
 <polygon points="1556,347 1566,350 1557,354 1556,347" stroke="#4e8cb9" fill="#4e8cb9"/>
 <polyline points="1291,458 1303,460 1316,462 1329,464 1343,466 1357,468 1371,470 1385,473 1399,475 1412,477 1426,479 1430,480 1434,480 1438,481 1441,481 1444,482 1447,482 1450,483 1454,483 1458,484 1462,485 1471,487 1481,488 1491,490 1500,491 1510,493 1520,495 1530,496 1539,498 1548,499 1557,501" stroke="#4e8cb9" fill="none"/>
 <polygon points="1558,497 1567,502 1557,504 1558,497" stroke="#4e8cb9" fill="#4e8cb9"/>
 <polygon points="1716,440 1537,440 1537,476 1716,476 1716,440" stroke="#90c4e4" fill="none"/>
 <text x="1546" y="460" fill="#000000" font-family="Arial" font-size="12">btn_Übernehmen_Click</text>
 <polyline points="1291,449 1312,450 1334,450 1357,451 1382,451 1406,452 1431,453 1456,453 1481,454 1504,454 1527,455" stroke="#4e8cb9" fill="none"/>
 <polygon points="1527,452 1537,456 1527,459 1527,452" stroke="#4e8cb9" fill="#4e8cb9"/>
 <polygon points="1682,386 1571,386 1571,422 1682,422 1682,386" stroke="#90c4e4" fill="none"/>
 <text x="1580" y="406" fill="#000000" font-family="Arial" font-size="12">button2_Click</text>
 <polyline points="1291,439 1315,436 1342,434 1369,431 1398,428 1428,425 1457,422 1485,419 1512,416 1538,413 1561,411" stroke="#4e8cb9" fill="none"/>
 <polygon points="1561,407 1571,410 1561,414 1561,407" stroke="#4e8cb9" fill="#4e8cb9"/>
 <polyline points="1716,453 1724,454 1733,456 1741,457 1749,460 1757,463 1764,466 1772,470 1779,474 1785,479 1791,485 1813,514 1823,542 1826,570 1824,598 1818,627 1811,656 1806,686 1806,717 1812,749 1827,782 1834,793 1842,802 1851,812 1860,820 1870,829 1880,836 1891,843 1901,850 1911,856 1921,861" stroke="#4e8cb9" fill="none"/>
 <polygon points="1923,858 1930,865 1920,864 1923,858" stroke="#4e8cb9" fill="#4e8cb9"/>
 <polyline points="1716,451 1724,450 1731,448 1739,447 1747,445 1754,443 1762,441 1769,439 1777,437 1784,434 1791,431 1810,422 1828,412 1846,401 1863,389 1879,377 1895,364 1910,352 1923,340 1935,329 1946,319" stroke="#4e8cb9" fill="none"/>
 <polygon points="1944,317 1953,312 1948,322 1944,317" stroke="#4e8cb9" fill="#4e8cb9"/>
 <polygon points="2004,440 1939,440 1939,476 2004,476 2004,440" stroke="#90c4e4" fill="none"/>
 <text x="1948" y="460" fill="#000000" font-family="Arial" font-size="12">ToInt32</text>
 <polyline points="1716,458 1737,458 1760,458 1782,458 1806,458 1829,458 1851,458 1873,458 1893,458 1912,458 1929,458" stroke="#4e8cb9" fill="none"/>
 <polygon points="1929,454 1939,458 1929,461 1929,454" stroke="#4e8cb9" fill="#4e8cb9"/>
 <polyline points="1682,399 1692,398 1702,396 1713,395 1724,393 1735,391 1747,388 1758,386 1769,383 1780,380 1791,377 1807,372 1822,366 1838,360 1853,353 1869,347 1883,340 1897,333 1910,326 1923,320 1934,314" stroke="#4e8cb9" fill="none"/>
 <polygon points="1932,311 1943,310 1936,317 1932,311" stroke="#4e8cb9" fill="#4e8cb9"/>
 <polygon points="968,802 687,802 687,838 968,838 968,802" stroke="#90c4e4" fill="none"/>
 <text x="696" y="822" fill="#000000" font-family="Arial" font-size="12">Berechne_Lichtmenge_Ohne_Fenster</text>
 <polyline points="577,676 584,677 592,679 599,680 607,682 614,684 622,686 629,688 637,690 644,693 651,696 668,704 685,713 702,723 719,733 734,744 749,755 763,766 777,776 788,786 799,795" stroke="#4e8cb9" fill="none"/>
 <polygon points="802,793 807,802 797,798 802,793" stroke="#4e8cb9" fill="#4e8cb9"/>
 <polyline points="944,838 946,839 949,840 951,841 954,841 956,842 958,843 961,844 963,845 966,846 968,847 973,849 977,852 980,855 983,858 986,861 988,863 991,866 995,869 999,872 1004,874 1006,875 1008,875 1009,876 1011,877 1013,878 1015,878 1017,879 1018,880 1020,880 1022,881" stroke="#4e8cb9" fill="none"/>
 <polygon points="1024,877 1032,884 1022,884 1024,877" stroke="#4e8cb9" fill="#4e8cb9"/>
 <polyline points="968,830 982,831 997,832 1011,833 1026,834 1040,835 1055,836 1069,837 1083,838 1097,839 1110,840" stroke="#4e8cb9" fill="none"/>
 <polygon points="1110,836 1120,840 1110,843 1110,836" stroke="#4e8cb9" fill="#4e8cb9"/>
 <polyline points="968,806 973,805 978,805 984,804 989,804 994,804 999,803 1005,803 1010,802 1016,802 1021,801" stroke="#4e8cb9" fill="none"/>
 <polygon points="1021,797 1031,800 1022,804 1021,797" stroke="#4e8cb9" fill="#4e8cb9"/>
 <polyline points="613,633 620,634 628,635 635,636 643,637 650,638 657,639 665,640 672,641 680,641 687,642 791,648 898,652 1005,652 1110,651 1210,648 1305,644 1391,639 1467,633 1531,628 1580,624" stroke="#4e8cb9" fill="none"/>
 <polygon points="1579,621 1590,623 1580,628 1579,621" stroke="#4e8cb9" fill="#4e8cb9"/>
 <polygon points="860,597 796,597 796,633 860,633 860,597" stroke="#90c4e4" fill="none"/>
 <text x="804" y="617" fill="#000000" font-family="Arial" font-size="12">Equals</text>
 <polyline points="651,615 666,615 680,615 695,615 710,615 724,615 737,615 750,615 763,615 774,615 785,615" stroke="#4e8cb9" fill="none"/>
 <polygon points="785,611 795,615 785,618 785,611" stroke="#4e8cb9" fill="#4e8cb9"/>
 <polygon points="58,574 4,574 4,610 58,610 58,574" stroke="#90c4e4" fill="none"/>
 <text x="14" y="594" fill="#000000" font-family="Arial" font-size="12">Main</text>
 <polyline points="58,592 60,592 63,592 65,592 68,592 71,592 73,592 76,592 79,592 81,592 84,592" stroke="#4e8cb9" fill="none"/>
 <polygon points="84,588 94,592 84,595 84,588" stroke="#4e8cb9" fill="#4e8cb9"/>
</svg>
